<mxfile host="app.diagrams.net" modified="2024-04-03T13:14:18.945Z" agent="Mozilla/5.0 (Macintosh; Intel Mac OS X 10.15; rv:124.0) Gecko/20100101 Firefox/124.0" etag="hnBFmEnixzT-CuA9oHcn" version="24.0.8" type="github">
  <diagram name="Page-1" id="822b0af5-4adb-64df-f703-e8dfc1f81529">
    <mxGraphModel dx="1167" dy="602" grid="1" gridSize="10" guides="1" tooltips="1" connect="1" arrows="1" fold="1" page="1" pageScale="1" pageWidth="1100" pageHeight="850" background="none" math="0" shadow="0">
      <root>
        <mxCell id="0" />
        <mxCell id="1" parent="0" />
        <mxCell id="_0_Oxnv7YHFVLghpyNOd-1" value="&lt;div&gt;New NJ&lt;/div&gt;&lt;div&gt;Campus&lt;br&gt;&lt;/div&gt;" style="whiteSpace=wrap;html=1;aspect=fixed;" vertex="1" parent="1">
          <mxGeometry x="250" y="290" width="80" height="80" as="geometry" />
        </mxCell>
        <mxCell id="_0_Oxnv7YHFVLghpyNOd-2" value="&lt;div&gt;New DC&lt;/div&gt;&lt;div&gt;Core&lt;br&gt;&lt;/div&gt;&lt;div&gt;Distribution&lt;br&gt;&lt;/div&gt;" style="whiteSpace=wrap;html=1;aspect=fixed;" vertex="1" parent="1">
          <mxGeometry x="450" y="290" width="80" height="80" as="geometry" />
        </mxCell>
        <mxCell id="_0_Oxnv7YHFVLghpyNOd-3" value="&lt;div&gt;New BC DC&lt;/div&gt;&lt;div&gt;Distribution&lt;/div&gt;&lt;div&gt;Switch&lt;br&gt;&lt;/div&gt;" style="whiteSpace=wrap;html=1;aspect=fixed;" vertex="1" parent="1">
          <mxGeometry x="640" y="290" width="80" height="80" as="geometry" />
        </mxCell>
        <mxCell id="_0_Oxnv7YHFVLghpyNOd-4" value="&lt;div&gt;HSAN Links&lt;/div&gt;&lt;div&gt;x 29&lt;br&gt;&lt;/div&gt;" style="endArrow=none;dashed=1;html=1;rounded=0;" edge="1" parent="1">
          <mxGeometry width="50" height="50" relative="1" as="geometry">
            <mxPoint x="680" y="520" as="sourcePoint" />
            <mxPoint x="680" y="370" as="targetPoint" />
          </mxGeometry>
        </mxCell>
        <mxCell id="_0_Oxnv7YHFVLghpyNOd-5" value="" style="endArrow=none;dashed=1;html=1;rounded=0;exitX=1;exitY=0.25;exitDx=0;exitDy=0;entryX=0;entryY=0.25;entryDx=0;entryDy=0;" edge="1" parent="1" source="_0_Oxnv7YHFVLghpyNOd-22" target="_0_Oxnv7YHFVLghpyNOd-3">
          <mxGeometry width="50" height="50" relative="1" as="geometry">
            <mxPoint x="590" y="380" as="sourcePoint" />
            <mxPoint x="640" y="330" as="targetPoint" />
          </mxGeometry>
        </mxCell>
        <mxCell id="_0_Oxnv7YHFVLghpyNOd-13" value="100g" style="edgeLabel;html=1;align=center;verticalAlign=middle;resizable=0;points=[];" vertex="1" connectable="0" parent="_0_Oxnv7YHFVLghpyNOd-5">
          <mxGeometry x="0.0364" y="-2" relative="1" as="geometry">
            <mxPoint as="offset" />
          </mxGeometry>
        </mxCell>
        <mxCell id="_0_Oxnv7YHFVLghpyNOd-6" value="" style="endArrow=none;dashed=1;html=1;rounded=0;exitX=1;exitY=0.75;exitDx=0;exitDy=0;entryX=0;entryY=0.25;entryDx=0;entryDy=0;" edge="1" parent="1" source="_0_Oxnv7YHFVLghpyNOd-22" target="_0_Oxnv7YHFVLghpyNOd-2">
          <mxGeometry width="50" height="50" relative="1" as="geometry">
            <mxPoint x="400" y="380" as="sourcePoint" />
            <mxPoint x="450" y="330" as="targetPoint" />
            <Array as="points" />
          </mxGeometry>
        </mxCell>
        <mxCell id="_0_Oxnv7YHFVLghpyNOd-12" value="100g" style="edgeLabel;html=1;align=center;verticalAlign=middle;resizable=0;points=[];" vertex="1" connectable="0" parent="_0_Oxnv7YHFVLghpyNOd-6">
          <mxGeometry x="-0.0667" relative="1" as="geometry">
            <mxPoint as="offset" />
          </mxGeometry>
        </mxCell>
        <mxCell id="_0_Oxnv7YHFVLghpyNOd-7" value="" style="endArrow=none;dashed=1;html=1;rounded=0;entryX=0;entryY=0.75;entryDx=0;entryDy=0;exitX=1;exitY=0.75;exitDx=0;exitDy=0;" edge="1" parent="1" source="_0_Oxnv7YHFVLghpyNOd-1" target="_0_Oxnv7YHFVLghpyNOd-2">
          <mxGeometry width="50" height="50" relative="1" as="geometry">
            <mxPoint x="350" y="500" as="sourcePoint" />
            <mxPoint x="400" y="450" as="targetPoint" />
          </mxGeometry>
        </mxCell>
        <mxCell id="_0_Oxnv7YHFVLghpyNOd-11" value="100g" style="edgeLabel;html=1;align=center;verticalAlign=middle;resizable=0;points=[];" vertex="1" connectable="0" parent="_0_Oxnv7YHFVLghpyNOd-7">
          <mxGeometry x="-0.1667" y="-1" relative="1" as="geometry">
            <mxPoint as="offset" />
          </mxGeometry>
        </mxCell>
        <mxCell id="_0_Oxnv7YHFVLghpyNOd-8" value="" style="endArrow=none;dashed=1;html=1;rounded=0;exitX=1;exitY=0.75;exitDx=0;exitDy=0;entryX=0;entryY=0.75;entryDx=0;entryDy=0;" edge="1" parent="1" source="_0_Oxnv7YHFVLghpyNOd-2" target="_0_Oxnv7YHFVLghpyNOd-3">
          <mxGeometry width="50" height="50" relative="1" as="geometry">
            <mxPoint x="540" y="320" as="sourcePoint" />
            <mxPoint x="650" y="320" as="targetPoint" />
          </mxGeometry>
        </mxCell>
        <mxCell id="_0_Oxnv7YHFVLghpyNOd-14" value="100g" style="edgeLabel;html=1;align=center;verticalAlign=middle;resizable=0;points=[];" vertex="1" connectable="0" parent="_0_Oxnv7YHFVLghpyNOd-8">
          <mxGeometry x="0.1455" y="-1" relative="1" as="geometry">
            <mxPoint as="offset" />
          </mxGeometry>
        </mxCell>
        <mxCell id="_0_Oxnv7YHFVLghpyNOd-9" value="" style="endArrow=none;dashed=1;html=1;rounded=0;exitX=0.75;exitY=0;exitDx=0;exitDy=0;" edge="1" parent="1">
          <mxGeometry width="50" height="50" relative="1" as="geometry">
            <mxPoint x="520" y="460" as="sourcePoint" />
            <mxPoint x="520" y="370" as="targetPoint" />
          </mxGeometry>
        </mxCell>
        <mxCell id="_0_Oxnv7YHFVLghpyNOd-16" value="Inet" style="edgeLabel;html=1;align=center;verticalAlign=middle;resizable=0;points=[];" vertex="1" connectable="0" parent="_0_Oxnv7YHFVLghpyNOd-9">
          <mxGeometry x="0.2" y="-1" relative="1" as="geometry">
            <mxPoint as="offset" />
          </mxGeometry>
        </mxCell>
        <mxCell id="_0_Oxnv7YHFVLghpyNOd-10" value="" style="endArrow=none;dashed=1;html=1;rounded=0;exitX=0.25;exitY=0;exitDx=0;exitDy=0;" edge="1" parent="1">
          <mxGeometry width="50" height="50" relative="1" as="geometry">
            <mxPoint x="470" y="460" as="sourcePoint" />
            <mxPoint x="470" y="370" as="targetPoint" />
          </mxGeometry>
        </mxCell>
        <mxCell id="_0_Oxnv7YHFVLghpyNOd-15" value="Inet" style="edgeLabel;html=1;align=center;verticalAlign=middle;resizable=0;points=[];" vertex="1" connectable="0" parent="_0_Oxnv7YHFVLghpyNOd-10">
          <mxGeometry x="-0.1111" y="-3" relative="1" as="geometry">
            <mxPoint as="offset" />
          </mxGeometry>
        </mxCell>
        <mxCell id="_0_Oxnv7YHFVLghpyNOd-22" value="&lt;div&gt;NYC&lt;/div&gt;&lt;div&gt;Campus&lt;br&gt;&lt;/div&gt;" style="whiteSpace=wrap;html=1;aspect=fixed;" vertex="1" parent="1">
          <mxGeometry x="250" y="140" width="80" height="80" as="geometry" />
        </mxCell>
        <mxCell id="_0_Oxnv7YHFVLghpyNOd-23" value="" style="endArrow=none;dashed=1;html=1;rounded=0;exitX=0.25;exitY=0;exitDx=0;exitDy=0;" edge="1" parent="1" source="_0_Oxnv7YHFVLghpyNOd-1">
          <mxGeometry width="50" height="50" relative="1" as="geometry">
            <mxPoint x="220" y="270" as="sourcePoint" />
            <mxPoint x="270" y="220" as="targetPoint" />
          </mxGeometry>
        </mxCell>
        <mxCell id="_0_Oxnv7YHFVLghpyNOd-24" value="" style="endArrow=none;dashed=1;html=1;rounded=0;exitX=0.75;exitY=0;exitDx=0;exitDy=0;entryX=0.75;entryY=1;entryDx=0;entryDy=0;" edge="1" parent="1" source="_0_Oxnv7YHFVLghpyNOd-1" target="_0_Oxnv7YHFVLghpyNOd-22">
          <mxGeometry width="50" height="50" relative="1" as="geometry">
            <mxPoint x="280" y="300" as="sourcePoint" />
            <mxPoint x="280" y="230" as="targetPoint" />
          </mxGeometry>
        </mxCell>
        <mxCell id="_0_Oxnv7YHFVLghpyNOd-25" value="Top of Rack x 100" style="rounded=0;whiteSpace=wrap;html=1;" vertex="1" parent="1">
          <mxGeometry x="720" y="290" width="120" height="20" as="geometry" />
        </mxCell>
      </root>
    </mxGraphModel>
  </diagram>
</mxfile>
